<svg xmlns="http://www.w3.org/2000/svg"  viewBox="0 0 64 64" width="50px" height="50px"><path d="M 7 7 L 7 19 L 11 19 L 11 11 L 19 11 L 19 7 L 7 7 z M 45 7 L 45 11 L 53 11 L 53 19 L 57 19 L 57 7 L 45 7 z M 32.607422 14.009766 C 25.685568 14.009766 19.344217 18.297503 16.359375 24.867188 L 19.089844 26.107422 C 21.617002 20.545106 26.927276 17.009766 32.607422 17.009766 C 34.109267 17.009766 35.604338 17.250508 37.054688 17.728516 C 39.093648 18.400415 41.047587 19.618103 42.648438 21.283203 L 44.810547 19.205078 C 42.873396 17.190179 40.51318 15.709006 37.994141 14.878906 C 36.246489 14.302913 34.431576 14.009766 32.607422 14.009766 z M 30.9375 19.576172 C 26.813494 20.178116 23.14917 22.994309 21.269531 27.224609 L 24.011719 28.443359 C 25.50808 25.07566 28.3151 22.990978 31.371094 22.544922 L 30.9375 19.576172 z M 34.845703 19.671875 L 34.267578 22.615234 C 34.628089 22.686144 34.988059 22.781677 35.349609 22.900391 C 38.917911 24.076422 42.344169 27.919535 40.925781 34.302734 C 40.427622 36.54493 39.722144 38.701325 38.826172 40.740234 L 41.574219 41.947266 C 42.550247 39.726175 43.313675 37.384883 43.853516 34.955078 C 45.561128 27.270278 41.240761 21.682749 36.289062 20.050781 C 35.811228 19.893778 35.328584 19.766849 34.845703 19.671875 z M 46.691406 21.533203 L 44.203125 23.208984 C 45.472019 25.093319 46.343556 27.348505 46.605469 29.923828 L 49.589844 29.621094 C 49.277756 26.552417 48.226512 23.812869 46.691406 21.533203 z M 32.576172 24.919922 C 31.324425 24.937432 30.05494 25.326444 28.941406 26.09375 L 30.644531 28.564453 C 31.913464 27.690065 33.376545 27.737244 34.398438 28.443359 C 35.42033 29.149475 36.188975 30.525136 35.611328 33.123047 L 38.539062 33.773438 C 39.310417 30.304348 38.185873 27.415447 36.103516 25.976562 C 35.062337 25.25712 33.827919 24.902414 32.576172 24.919922 z M 26.855469 28.291016 C 26.632488 28.644168 26.426275 29.026499 26.244141 29.4375 C 25.162667 31.869591 22.388383 34.089652 19.818359 35.589844 C 17.247878 37.090303 15.001953 37.886719 15.001953 37.886719 L 16.001953 40.714844 C 16.001953 40.714844 18.49906 39.834182 21.330078 38.181641 C 24.161096 36.5291 27.445392 34.121698 28.986328 30.654297 L 28.986328 30.652344 C 29.108194 30.377344 29.243605 30.125426 29.390625 29.892578 L 26.855469 28.291016 z M 19.941406 28.84375 C 18.473766 30.165418 16.101828 31.530006 14.226562 32.339844 L 15.416016 35.09375 C 17.546751 34.173587 20.078859 32.756598 21.949219 31.072266 L 19.941406 28.84375 z M 31.091797 30.658203 C 27.903809 40.222165 19.726564 43.345703 19.726562 43.345703 L 20.802734 46.144531 C 20.802734 46.144531 30.319487 42.46146 33.9375 31.607422 L 31.091797 30.658203 z M 46.650391 32.664062 C 46.642291 32.787663 46.632534 32.914375 46.621094 33.046875 C 46.551924 33.835332 46.42739 34.64966 46.242188 35.486328 C 45.543546 38.6276 44.491653 41.624877 43.119141 44.421875 L 45.8125 45.744141 C 47.291718 42.729689 48.420561 39.50482 49.169922 36.134766 C 49.382575 35.174088 49.528508 34.229607 49.609375 33.306641 L 49.609375 33.304688 C 49.621935 33.159186 49.634591 33.011776 49.644531 32.859375 L 46.650391 32.664062 z M 34.771484 36.082031 C 33.765409 38.949535 32.248703 41.573441 30.029297 44.089844 L 32.279297 46.074219 C 34.737891 43.286621 36.471638 40.294715 37.601562 37.074219 L 34.771484 36.082031 z M 37.544922 43.34375 C 36.431014 45.376512 35.112337 47.268791 33.609375 48.992188 L 35.871094 50.964844 C 37.518132 49.07624 38.959689 47.004395 40.175781 44.785156 L 37.544922 43.34375 z M 7 45 L 7 57 L 19 57 L 19 53 L 11 53 L 11 45 L 7 45 z M 53 45 L 53 53 L 45 53 L 45 57 L 57 57 L 57 45 L 53 45 z M 28.484375 45.712891 C 27.5782 46.595194 26.575394 47.463603 25.46875 48.324219 L 27.310547 50.693359 C 28.497903 49.769976 29.584347 48.827025 30.576172 47.861328 L 28.484375 45.712891 z"/></svg>