<svg version="1.0" xmlns="http://www.w3.org/2000/svg"
 width="23px" viewBox="0 0 230.000000 215.000000"
 preserveAspectRatio="xMidYMid meet">

<g transform="translate(0.000000,215.000000) scale(0.100000,-0.100000)"
fill="#9a9696" stroke="none">
<path fill="#9a9696" d="M130 2107 c-30 -16 -51 -37 -67 -67 l-23 -43 0 -907 0 -907 23 -43
c16 -30 37 -51 67 -67 l43 -23 729 0 c797 0 769 -2 821 59 39 47 49 98 45 243
-3 128 -3 130 -31 154 -34 29 -66 31 -100 3 -26 -20 -26 -23 -29 -157 l-3
-137 -702 -3 -703 -2 0 880 0 880 705 0 705 0 0 -297 0 -297 -220 -221 -220
-221 0 -97 0 -96 -324 -3 c-302 -3 -325 -4 -345 -22 -28 -25 -29 -88 -2 -115
11 -11 39 -22 63 -26 24 -3 251 -5 505 -3 l463 3 361 360 c201 200 367 374
375 392 17 38 18 91 3 130 -12 33 -149 174 -197 205 -40 25 -116 27 -158 5
-16 -9 -56 -43 -89 -77 l-60 -61 -5 248 c-5 240 -6 249 -28 281 -13 18 -41 41
-62 52 -38 19 -62 20 -768 20 l-729 0 -43 -23z m1930 -652 l65 -65 -331 -331
-331 -330 -64 3 -64 3 -3 64 -3 65 328 328 c180 180 330 328 333 328 3 0 35
-29 70 -65z"/>
<path fill="#9a9696" d="M524 1596 c-48 -22 -61 -89 -24 -126 19 -19 33 -20 403 -20 l384 0
21 23 c30 32 29 77 -4 108 l-26 24 -361 2 c-290 2 -368 0 -393 -11z"/>
<path fill="#9a9696" d="M506 1149 c-37 -29 -37 -89 0 -118 25 -20 39 -21 271 -21 l244 0 24
25 c16 15 25 36 25 55 0 19 -9 40 -25 55 l-24 25 -244 0 c-232 0 -246 -1 -271
-21z"/>
</g>
</svg>
