<svg version="1.0" xmlns="http://www.w3.org/2000/svg"
 width="24px" viewBox="0 0 512.000000 512.000000"
 preserveAspectRatio="xMidYMid meet">

<g transform="translate(0.000000,512.000000) scale(0.100000,-0.100000)"
fill="#fff" stroke="none">
<path d="M1833 5105 c-104 -23 -189 -71 -273 -155 -42 -41 -88 -98 -103 -127
-37 -70 -67 -192 -67 -274 l0 -67 -252 -4 c-252 -3 -253 -3 -323 -32 -139 -57
-241 -150 -306 -278 -62 -123 -59 -18 -59 -1925 0 -1226 3 -1758 11 -1795 21
-100 75 -196 158 -279 87 -86 166 -131 276 -154 103 -22 2285 -22 2388 0 204
43 375 207 427 409 11 44 20 110 20 147 l0 67 253 4 c251 3 252 3 322 32 139
57 241 150 306 278 62 123 59 18 59 1925 0 1226 -3 1758 -11 1795 -21 100 -75
196 -158 279 -87 86 -166 131 -276 154 -100 21 -2296 21 -2392 0z m2372 -378
c44 -25 80 -72 95 -126 15 -53 14 -3403 -1 -3456 -15 -52 -82 -119 -134 -134
-23 -6 -124 -11 -237 -11 l-198 0 0 1483 c0 1009 -3 1502 -11 1543 -27 154
-145 313 -285 386 -125 65 -79 62 -914 68 l-765 5 2 64 c2 82 38 144 102 178
l44 23 1131 0 1131 0 40 -23z m-980 -618 c60 -17 121 -84 134 -151 8 -38 11
-542 9 -1749 l-3 -1696 -30 -48 c-20 -32 -45 -56 -74 -72 l-44 -23 -1131 0
-1131 0 -40 23 c-44 25 -80 72 -95 126 -14 52 -14 3403 1 3455 14 50 73 113
124 131 34 12 218 14 1140 15 770 0 1112 -3 1140 -11z"/>
</g>
</svg>
