<svg version="1.0" xmlns="http://www.w3.org/2000/svg"
height="30px" viewBox="0 0 37.000000 120.000000"
 preserveAspectRatio="xMidYMid meet">

<g transform="translate(0.000000,120.000000) scale(0.100000,-0.100000)"
fill="#fff" stroke="none">
<path d="M125 1155 c-131 -47 -123 -238 11 -274 69 -18 139 12 168 72 57 121
-54 247 -179 202z"/>
<path d="M133 749 c-69 -20 -114 -97 -99 -170 26 -132 212 -156 270 -35 55
115 -50 241 -171 205z"/>
<path d="M145 340 c-75 -16 -121 -80 -112 -156 6 -56 37 -98 89 -119 124 -49
240 78 182 200 -26 56 -95 88 -159 75z"/>
</g>
</svg>
