<?xml version="1.0" encoding="utf-8"?>
<!-- Generator: Adobe Illustrator 24.1.1, SVG Export Plug-In . SVG Version: 6.00 Build 0)  -->
<svg version="1.1" id="Layer_1" xmlns="http://www.w3.org/2000/svg" xmlns:xlink="http://www.w3.org/1999/xlink" x="0px" y="0px"
	 viewBox="0 0 512 512" style="enable-background:new 0 0 512 512;" xml:space="preserve">
<style type="text/css">
	.st0{fill-rule:evenodd;clip-rule:evenodd;fill:#D0D0D0;}
	.st1{fill-rule:evenodd;clip-rule:evenodd;fill:#1D1D1D;}
</style>
<g>
	<path class="st0" d="M179.2,204.8c-21.2,0-38.4-17.2-38.4-38.4S158,128,179.2,128s38.4,17.2,38.4,38.4S200.4,204.8,179.2,204.8z
		 M59.9,384c21.5-14.85,73.47-32,119.3-32s97.8,17.15,119.3,32H59.9z"/>
	<path class="st1" d="M179.2,256c49.4,0,89.6-40.2,89.6-89.6s-40.2-89.6-89.6-89.6S89.6,117,89.6,166.4S129.8,256,179.2,256z
		 M179.2,128c21.25,0,38.4,17.15,38.4,38.4s-17.15,38.4-38.4,38.4s-38.4-17.15-38.4-38.4S157.95,128,179.2,128z M179.2,300.8
		C119.3,300.8,0,330.75,0,390.4v44.8h358.4v-44.8C358.4,330.75,239.1,300.8,179.2,300.8z M59.9,384c21.5-14.85,73.47-32,119.3-32
		s97.8,17.15,119.3,32H59.9z M359.42,302.33c29.7,21.52,50.18,50.17,50.18,88.07v44.8H512v-44.8
		C512,338.67,422.4,309.25,359.42,302.33z M332.8,256c49.4,0,89.6-40.2,89.6-89.6s-40.2-89.6-89.6-89.6
		c-13.82,0-26.63,3.32-38.4,8.95c16.13,22.8,25.6,50.7,25.6,80.65s-9.48,57.85-25.6,80.65C306.17,252.68,318.98,256,332.8,256z"/>
</g>
</svg>
