
<svg version="1.0" xmlns="http://www.w3.org/2000/svg"
 height="24px" viewBox="0 0 512.000000 512.000000"
 preserveAspectRatio="xMidYMid meet">

<g transform="translate(0.000000,512.000000) scale(0.100000,-0.100000)"
fill="#000000" stroke="none">
<path fill="#9a9696" d="M2285 4675 c-536 -71 -1019 -339 -1377 -765 -147 -175 -295 -447
-372 -681 -75 -229 -106 -422 -106 -669 0 -247 31 -440 106 -669 151 -461 457
-854 879 -1131 178 -116 454 -231 675 -280 211 -47 495 -63 705 -40 382 43
751 191 1065 428 181 137 403 387 530 596 274 455 367 1019 254 1546 -66 308
-198 591 -397 855 -73 96 -265 290 -363 367 -311 245 -700 405 -1086 447 -128
14 -388 12 -513 -4z m571 -435 c605 -103 1123 -548 1319 -1132 247 -738 -25
-1535 -670 -1967 -782 -523 -1840 -310 -2366 477 -379 566 -379 1319 0 1884
135 201 281 347 481 480 364 241 798 332 1236 258z"/>
<path fill="#9a9696" d="M2510 3621 c-78 -25 -132 -75 -150 -139 -8 -25 -10 -194 -8 -518 l3
-481 27 -39 c15 -21 44 -50 65 -64 31 -21 48 -25 113 -25 65 0 82 4 113 25 21
14 50 43 65 64 l27 39 3 481 c2 324 0 493 -8 518 -28 97 -158 169 -250 139z"/>
<path fill="#9a9696" d="M2480 1904 c-107 -46 -159 -174 -115 -282 54 -128 221 -169 329 -80
120 99 101 284 -37 353 -59 29 -123 32 -177 9z"/>
</g>
</svg>
