
<svg version="1.0" xmlns="http://www.w3.org/2000/svg"
 width="24px" viewBox="0 0 512.000000 512.000000"
 preserveAspectRatio="xMidYMid meet">

<g transform="translate(0.000000,512.000000) scale(0.100000,-0.100000)"
fill="#9a9696" stroke="none">
<path fill="#9a9696" d="M892 5109 c-45 -13 -109 -79 -122 -127 -7 -28 -9 -773 -8 -2443 l3
-2404 24 -38 c13 -21 42 -50 64 -65 l41 -27 1640 -3 c1147 -2 1652 0 1678 8
50 14 97 56 119 105 18 38 19 133 19 2445 0 2317 -1 2406 -19 2445 -22 48 -54
79 -103 100 -33 13 -218 15 -1670 14 -997 0 -1646 -4 -1666 -10z m3058 -2549
l0 -2160 -1395 0 -1395 0 0 2160 0 2160 1395 0 1395 0 0 -2160z"/>
<path fill="#9a9696" d="M1635 3931 c-141 -64 -153 -259 -21 -345 21 -14 61 -28 90 -31 28 -3
431 -5 896 -3 803 3 847 4 880 22 83 44 114 100 108 193 -4 69 -20 97 -82 147
l-38 31 -896 2 c-853 3 -899 2 -937 -16z"/>
<path fill="#9a9696" d="M1635 3134 c-132 -69 -153 -233 -42 -331 20 -18 54 -36 74 -40 21 -4
430 -8 909 -8 l871 0 48 30 c68 42 98 100 93 181 -4 70 -30 116 -86 155 l-36
24 -900 3 c-802 2 -904 0 -931 -14z"/>
<path fill="#9a9696" d="M3080 2310 c-19 -4 -46 -12 -60 -19 -14 -7 -169 -157 -345 -332
l-320 -319 -125 125 c-109 110 -132 128 -177 141 -63 18 -107 12 -166 -26 -79
-50 -109 -157 -68 -245 26 -54 413 -439 463 -460 48 -19 109 -19 156 1 45 19
811 778 848 841 85 142 -42 321 -206 293z"/>
</g>
</svg>
